<?xml version="1.0" encoding="utf-8"?>
<!-- Generator: Adobe Illustrator 16.0.4, SVG Export Plug-In . SVG Version: 6.00 Build 0)  -->
<!DOCTYPE svg PUBLIC "-//W3C//DTD SVG 1.1//EN" "http://www.w3.org/Graphics/SVG/1.1/DTD/svg11.dtd">
<svg version="1.1" id="Layer_1" xmlns="http://www.w3.org/2000/svg" xmlns:xlink="http://www.w3.org/1999/xlink" x="0px" y="0px"
	 width="200px" height="80px" viewBox="0 0 200 80" enable-background="new 0 0 200 80" xml:space="preserve">
<path fill="#9ACD32" d="M122.156,76.718c-1.801,0-3.586-0.877-5.03-2.468c-0.847-0.93-0.474-1.725-0.228-2.252
	c0.131-0.281,0.359-0.438,0.633-0.438c0.349,0,0.685,0.254,0.953,0.461l0.101,0.074c0.083,0.024,0.231,0.057,0.383,0.057
	c0.003,0,0.003,0,0.003,0c0.389,0,0.807-0.221,1.237-0.658c2.424-2.462,4.419-10.868,4.372-13.954
	c-0.001-0.108-0.031-0.237-0.064-0.337c-0.039,0.072-0.078,0.158-0.111,0.229c-0.049,0.104-0.104,0.215-0.154,0.317
	c-0.727,1.323-2.426,2.329-3.958,2.339c-2.755,0-4.774-1.577-5.71-4.373c-1.141,3.492-4.083,5.457-8.303,5.457
	c-3.971,0-8.279-1.824-10.98-4.646c-2.927-3.059-2.721-6.146-2.161-7.157c0.274-0.413,0.636-0.615,1.062-0.615
	c0.882,0,1.841,0.879,2.475,1.461c0.154,0.144,0.347,0.319,0.409,0.354c2.232,1.642,5.13,2.644,7.609,2.644
	c2.513,0,4.041-0.985,4.093-2.637c0.065-2.203-3.679-4.47-8.013-7.093c-6.662-4.031-14.556-8.975-15.494-17.228
	c-0.679-5.976,2.481-12.13,9.17-14.516c1.798-0.641,3.708-0.967,5.678-0.967c4.451,0,8.669,1.379,11.093,4.437
	c2,2.525,3.967,6.689,2.612,9.401c-0.294,0.586-0.867,0.963-1.462,0.963c-0.51,0-0.982-0.269-1.332-0.759
	c-0.734-1.029-2.977-4.158-7.227-4.615c-0.508-0.062-1.014-0.093-1.504-0.093c-2.803,0-5.183,0.983-6.698,2.767
	c-1.434,1.687-1.965,3.954-1.539,6.557c0.77,4.693,6.136,7.627,11.323,10.465c3.693,2.021,7.209,3.943,8.828,6.412
	c0.202-2.742-0.068-4.8-0.273-6.353c-0.143-1.074-0.254-1.921-0.146-2.585c0.123-0.741,0.912-2.123,2.252-2.123
	c0.193,0,0.393,0.029,0.588,0.091c3.069,0.58,5.666,3.131,5.104,7.517l-0.128,0.963c-0.396,2.942-1.449,10.769,0.02,11.634
	c0.141,0.082,0.271,0.125,0.394,0.125c0.175,0,0.636-0.081,0.808-0.267c0.773-0.826,1.562-3.65,1.229-8.896
	c-0.098-0.642,0.726-1.104,1.226-1.319c0.492-0.22,1.024-0.336,1.535-0.336c0.289,0,0.562,0.038,0.812,0.111
	c-0.147-1.196-0.086-2.398,0.188-3.518c0.924-3.735,4.312-5.408,7.257-5.408c0.096,0,0.188,0.002,0.279,0.006
	c2.375,0.091,4.977,1.994,5.926,4.33c0.83,2.047,0.098,4.141-0.805,4.555c-0.11,0.054-0.23,0.077-0.354,0.077
	c-0.438,0-0.836-0.336-1.293-0.725c-0.628-0.53-1.412-1.195-2.522-1.195c-0.142,0-0.284,0.01-0.438,0.031
	c-0.756,0.11-1.485,0.588-1.955,1.279c-0.428,0.633-0.582,1.372-0.424,2.029c0.438,1.829,3.149,2.652,5.117,3.607
	c1.649,0.799,3.03,1.586,4.178,3.127c1.546,1.625,1.603,4.431,0.663,6.009c-0.961,1.616-2.635,2.506-4.707,2.506
	c-0.001,0,0.322,0.042,0.322,0.042c-2.928,0-6.286-1.938-6.625-4.818c-0.051-0.139-0.092-0.91,0.191-1.441
	c0.148-0.275,0.373-0.467,0.646-0.549c0.095-0.025,0.191-0.041,0.281-0.041c0.468,0,0.752,0.344,1.026,0.676
	c0.384,0.46,0.776,0.937,1.741,0.937l0.167-0.005c0.63-0.035,1.208-0.396,1.437-0.902c0.123-0.273,0.188-0.699-0.191-1.181
	c-0.646-0.817-1.662-1.446-2.837-2.174c-1.119-0.694-3.375-1.463-4.505-2.542c1.438,15.557-1.237,22.161-3.771,24.966
	C125.352,75.968,123.805,76.718,122.156,76.718z M39.601,67.391c-3.259,0-5.445-1.664-6.498-4.951
	c-0.562-1.754-0.69-3.74-0.744-5.631c-0.257-8.842,0.14-15.918,0.403-20.601c0.137-2.423,0.257-4.586,0.176-5.565
	c-0.303,0.492-0.884,0.848-1.441,0.848c-0.098,0-0.193-0.012-0.286-0.033c-0.807-0.188-2.337-1.081-2.358-3.125
	c-0.022-2.059,1.587-4.418,4.784-7.011c0.252-1.895,0.298-7.69-0.042-13.306c-0.021-0.34,0.146-0.734,0.446-1.053
	c0.391-0.416,0.929-0.644,1.514-0.644c0.265,0,0.536,0.046,0.807,0.14c4.688,1.603,4.923,5.618,5.024,7.331l0.016,0.256
	c0.071,1.071,0.07,2.16,0.07,3.214c0,0.341,0,0.682,0.002,1.023c0.718-0.214,2.587-0.754,3.341-0.855
	c0.181-1.348,0.264-2.112,0.421-3.428c0.167-1.406,0.333-2.81,0.529-4.254c0.216-1.593,0.482-3.023,0.811-4.372
	c0.24-0.988,0.892-1.555,1.785-1.555c0.5,0,1.036,0.182,1.468,0.498c3.591,2.626,4.761,5.146,4.313,9.302
	c-0.105,0.977-0.246,2.276-0.336,3.41c0.001,0,0.003,0,0.004,0c1.387,0,2.434,0.572,2.544,1.391c0.076,0.567-0.247,1.634-3.208,2.5
	c-1.236,10.816-1.625,29.12,1.453,34.62c0.067,0.118,0.159,0.241,0.25,0.364c0.263,0.359,0.562,0.764,0.447,1.205
	c-0.069,0.264-0.274,0.475-0.61,0.627c-0.953,0.433-1.904,0.652-2.83,0.652l0,0c-2.533,0-4.822-1.724-5.83-4.389
	c-1.51-4-2.37-19.782-1.708-31.015c-0.65,0.186-2.462,1.04-3.036,1.324c-0.551,5.25-2.364,38.571,0.173,40.873
	c0.374,0.338,0.507,0.791,0.358,1.209c-0.197,0.561-0.827,0.936-1.644,0.981C39.978,67.385,39.787,67.391,39.601,67.391z
	 M63.794,64.152c-0.239,0-0.515-0.021-0.826-0.062c-1.156-0.158-3.293-1.764-4.444-5.541c-4.054-13.304-2.083-40.919,1.284-45.465
	c0.37-0.498,0.772-0.751,1.195-0.751c0.183,0,0.364,0.048,0.539,0.144c0.423,0.229,4.121,2.333,3.867,5.543
	c-0.044,0.565-0.184,1.469-0.375,2.719c-0.972,6.332-3.248,21.161-0.291,38.853c0.054,0.321,0.206,0.732,0.364,1.168
	c0.373,1.02,0.759,2.069,0.26,2.781C65.078,63.953,64.565,64.152,63.794,64.152L63.794,64.152z M175.535,62.085
	c-0.733,0-4.191-0.267-5.391-5.086c-1.013,2.062-3.442,4.271-6.377,4.271c-1.86,0-3.68-0.85-5.41-2.524
	c-0.908,1.664-3.649,2.84-6.119,2.374c-7.09-1.34-8.883-8.121-7.385-24.897c-0.481,0.153-1.102,0.274-1.715,0.274
	c-1.367,0-2.18-0.595-2.226-1.636c-0.111-2.465,1.676-4.562,4.683-5.51c0.361-2.812-0.016-4.569-0.221-5.525
	c-0.066-0.318-0.115-0.55-0.117-0.728c-0.003-0.513,0.163-0.942,0.493-1.275c0.576-0.58,1.495-0.703,2.165-0.703
	c1.1,0,2.309,0.322,3.008,0.802c1.646,1.125,2.514,3.005,2.52,5.454c1.082-0.22,3.615-0.671,6.225-0.671
	c3.436,0,5.709,0.774,6.762,2.301c0.117,0.173,0.405,0.947,0.17,1.396c-0.105,0.206-0.309,0.323-0.547,0.323
	c-0.244-0.012-0.46-0.017-0.686-0.017c-3.355,0-8.404,1.116-12.08,2.664c-2.895,11.816-2.131,19.837,0.087,22.626
	c0.91,1.146,2.476,1.229,3.446,0.726c-2.362-3.49-3.109-9.641-1.689-14.227c0.879-2.839,2.445-4.722,4.529-5.443
	c0.572-0.198,1.148-0.299,1.71-0.299c3.603,0,5.959,4.047,6.159,7.959c0.188,3.645-1.514,8.076-6.86,8.848
	c0.715,2.275,1.694,3.39,2.749,3.525c7.688,0.993,6.254-15.551,6.3-19.694l0.005-0.256c0.049-1.156,0.991-1.964,2.293-1.964
	c1.651,0,3.461,1.187,4.967,3.254c0.604,0.839,0.635,1.996,0.498,3.041c0.729-0.762,1.744-1.856,1.984-2.133
	c0.285-0.324,0.75-0.526,1.215-0.526c0.26,0,0.506,0.063,0.709,0.188c1.699,0.997,3.723,2.184,4.139,5.217
	c0.002-0.008,0.012-0.01,0.022-0.01c0.021,0,0.093,0.006,0.093,0.006c0.135,0,0.324-0.061,0.416-0.225
	c0.729-1.316,2.053-2.072,3.631-2.072c1.033,0,2.113,0.328,3.043,0.924c1.067,0.686,0.205,2.223-0.185,4.529
	c-0.358,2.135-0.805,4.613,0.062,8.646c0.154,0.711-0.049,1.23-0.344,1.551c-0.203,0.224-0.488,0.34-0.822,0.34l0,0
	c-0.635,0-1.297-0.42-1.424-0.506c-1.601-1.07-2.651-4.108-2.685-7.738c-0.011-1.34-0.415-1.948-0.787-1.948
	c-0.147,0-0.298,0.087-0.419,0.239c-1.46,1.843-1.137,5.695-0.9,8.511c0.19,2.271,0.252,3.29-0.278,3.618
	c-0.25,0.154-0.576,0.236-0.923,0.236c-0.469,0-1.184-0.155-1.906-0.902c-1.279-1.32-2.746-4.725-2.479-13.454
	c0.016-0.508-0.104-0.815-0.221-0.937c-0.053-0.057-0.088-0.057-0.102-0.057c-0.049,0-0.137,0.041-0.237,0.158
	c-3.21,3.703-2.511,11.304-1.851,13.21c0.396,1.147,0.381,2.224-0.049,2.946c-0.24,0.41-0.606,0.681-1.031,0.755
	C175.975,62.066,175.766,62.085,175.535,62.085z M161.539,45.449c-0.09,0-0.186,0.012-0.28,0.031
	c-1.138,0.248-1.581,2.552-1.11,5.652c2.16-0.525,2.813-2.57,2.713-3.88C162.79,46.355,162.354,45.449,161.539,45.449z
	 M75.512,61.039c-3.493,0-6.593-2.451-8.294-6.557c-2.125-5.131-2.558-14.115,1.643-20.44c1.491-2.245,3.329-3.39,5.463-3.399
	c3.57,0,6.085,2.914,6.602,7.607c0.737,6.711-5.24,11.223-9.063,12.66c0.593,2.979,2.219,4.339,3.52,4.339
	c0.867,0,1.61-0.573,2.094-1.618c0.359-0.804,0.934-1.195,1.757-1.195c0.222,0,0.468,0.029,0.731,0.09
	c1.159,0.263,2.009,1.049,2.272,2.104c0.373,1.496-0.429,3.229-2.201,4.753C78.796,60.452,77.188,61.039,75.512,61.039
	L75.512,61.039z M74.371,40.886c-0.333,0-0.664,0.165-0.99,0.491c-1.088,1.094-1.749,3.574-1.794,6.688
	c2.195-0.694,3.598-2.918,3.872-4.881c0.148-1.072-0.069-1.899-0.568-2.162C74.718,40.932,74.543,40.886,74.371,40.886z
	 M25.966,60.715c-2.398,0-5.311-0.876-6.412-2.834c0,0-0.077-0.142-0.085-0.154c-0.023,0.02-0.051,0.041-0.086,0.074
	c-1.077,0.977-2.484,1.492-4.07,1.492c-1.033,0-2.132-0.216-3.179-0.625C3.003,54.396,7.857,9.425,9.686,4.464
	c0.281-0.761,1.009-1.182,2.048-1.182c2.004,0,4.975,1.544,5.885,3.057c0.257,0.427,0.111,2.079-0.57,8.405
	c-1.26,11.684-3.881,35.998,1.235,38.468c0.01,0.006,0.021,0.011,0.03,0.015c0.005-0.211-0.04-0.594-0.079-0.939
	c-0.03-0.262-0.064-0.555-0.092-0.875c-0.153-1.691-1.005-17.362,0.765-20.062c0.508-1.333,1.605-1.56,2.709-1.594l0.224-0.002
	c2.528,0,4.868,1.311,5.693,3.188c0.54,1.229,0.239,4.008-0.143,7.524c-0.522,4.812-1.172,10.8,0.076,15.185
	c0.294,1.031,0.944,1.474,1.518,1.861c0.531,0.36,1.135,0.771,0.856,1.584C29.433,60.288,27.572,60.715,25.966,60.715z
	 M23.946,25.641c-1.002,0-1.851-0.325-2.455-0.941c-0.572-0.582-0.906-1.411-0.892-2.218c0.042-2.655,1.875-4.561,4.667-4.851
	c0.127-0.014,0.252-0.021,0.375-0.021c1.058,0,2.05,0.489,2.721,1.342c0.666,0.845,0.924,1.928,0.69,2.897
	c-0.38,1.577-1.392,2.812-2.708,3.302C25.471,25.476,24.665,25.641,23.946,25.641L23.946,25.641z"/>
</svg>
